<?xml version="1.0" encoding="UTF-8"?>
<!-- Created with Inkscape (http://www.inkscape.org/) -->
<svg version="1.1" viewBox="0 0 512 512" xmlns="http://www.w3.org/2000/svg">
 <defs>
  <mask id="mask19989" maskUnits="userSpaceOnUse">
   <path d="m236.08 500.5-71.014-41a20833883 20833883 0 0 0-39.837-23l-71.014-41a39.837 39.837 0 0 1-19.919-34.5l8.8e-5 -82a20833883 20833883 0 0 0-1e-6 -46l-9.3e-5 -82a39.837 39.837 0 0 1 19.919-34.5l71.014-41a20833883 20833883 0 0 0 39.837-23l71.014-41a39.837 39.837 0 0 1 39.837 0l71.014 41a20833883 20833883 0 0 0 39.837 23l71.014 41a39.837 39.837 0 0 1 19.919 34.5l-9e-5 82a20833883 20833883 0 0 0 0 46l9e-5 82a39.837 39.837 0 0 1-19.919 34.5l-71.014 41a20833883 20833883 0 0 0-39.837 23l-71.014 41a39.837 39.837 0 0 1-39.837 0z" fill="#fff" style="font-variation-settings:'wght' 800"/>
  </mask>
 </defs>
 <g>
  <g transform="matrix(1.0246 0 0 1.0246 -6.294 -6.294)" mask="url(#mask19989)">
   <path d="m34.298 384 221.7-384 221.7 384-221.7 128z" fill="#9c033a" mask="none"/>
   <path d="m477.7 384-443.41-256 221.7-128 221.7 128z" fill="#bf375f" mask="none"/>
   <path d="m34.298 384 443.4-256-221.7-128-221.7 128" fill="#d26383" mask="none"/>
  </g>
  <path d="m262.1 104.76a151.36 151.36 0 0 0-45.272 5.0349 151.36 151.36 0 0 0-112.19 146.21 151.36 151.36 0 0 0 112.19 146.21 151.36 151.36 0 0 0 170.26-70.524l-65.966-38.086a75.516 75.516 0 0 1-65.119 37.922 75.516 75.516 0 0 1-75.517-75.517 75.516 75.516 0 0 1 75.517-75.517 75.516 75.516 0 0 1 65.365 37.78l65.72-37.944a151.36 151.36 0 0 0-124.99-75.559z" fill="#fff" style="font-variation-settings:'wght' 800"/>
 </g>
 <g fill="#fff">
  <path d="m361.01 230.78v16.662h-16.662v17.172h16.662v16.664h17.172v-16.664h16.662v-17.172h-16.662v-16.662z" style="font-variation-settings:'wght' 800"/>
  <path d="m424.04 230.78v16.662h-16.662v17.172h16.662v16.664h17.172v-16.664h16.662v-17.172h-16.662v-16.662z" style="font-variation-settings:'wght' 800"/>
 </g>
</svg>
