<?xml version="1.0" encoding="UTF-8"?>
<!-- Created with Inkscape (http://www.inkscape.org/) -->
<svg version="1.1" viewBox="0 0 512 512" xmlns="http://www.w3.org/2000/svg">
 <defs>
  <mask id="mask2224" maskUnits="userSpaceOnUse">
   <path d="m144.75 177.04 4.0254 45.385 132.58 0.46485-78.137 45.281c1.3029 14.692 2.6066 29.384 3.9102 44.076l102.31 0.0195-4.3147 56.688-49.119 13.642-48.97-13.647-2.7097-35.652h-45.713l6.2988 70.994 91.094 25.346 91.094-25.346c4.0259-45.374 8.0511-90.747 12.076-136.12h-73.854l77.918-45.742 4.02-45.389h-111.25z" fill="#fff" stroke-width=".41942" style="font-variation-settings:'wght' 800"/>
  </mask>
 </defs>
 <g>
  <path transform="matrix(1.0282 0 0 1.0282 -7.2183 -7.2083)" d="m80.121 105.12h175.88v399.85l-144.01-40.121zm351.76 0h-175.88v399.85l144.01-40.121z" fill="#1572b6" stroke-width=".66349" style="font-variation-settings:'wght' 800"/>
  <path d="m402.98 131.07h-146.98v350.27l120.35-35.146z" fill="#33a9dc" stroke-width=".5677" style="font-variation-settings:'wght' 800;mix-blend-mode:normal"/>
 </g>
 <g>
  <g transform="matrix(1.0282 0 0 1.0282 -7.2183 -7.2083)" mask="url(#mask2224)">
   <rect transform="scale(-1,1)" x="-379.16" y="157.82" width="246.31" height="291.04" fill="#e6e6e6" stroke-width="1.4064" style="font-variation-settings:'wght' 800"/>
   <rect x="256" y="157.82" width="124.52" height="291.04" fill="#fff" style="font-variation-settings:'wght' 800"/>
  </g>
 </g>
 <g>
  <path d="m151.64 0v68.879h55.155v-23.062h-32.093v-22.755h32.093v-23.062h-55.155z" stroke-width="1.0282" style="font-variation-settings:'wght' 800"/>
  <path d="m219.58 0v23.062l28.428 22.755h-28.428v23.062h64.341v-23.062l-28.428-22.755h28.428v-23.062z" stroke-width=".99373" style="font-variation-settings:'wght' 800"/>
  <path d="m296.44 0v23.062l28.428 22.755h-28.428v23.062h64.341v-23.062l-28.428-22.755h28.428v-23.062z" stroke-width=".99373" style="font-variation-settings:'wght' 800"/>
 </g>
</svg>
