<?xml version="1.0" encoding="UTF-8"?>
<!-- Created with Inkscape (http://www.inkscape.org/) -->
<svg version="1.1" viewBox="0 0 512 512" xmlns="http://www.w3.org/2000/svg">
 <defs>
  <mask id="mask17528" maskUnits="userSpaceOnUse">
   <path d="m144.75 177.04 11.994 135.21h152.68l-4.2969 56.703-49.049 13.646-49.049-13.646-2.7012-35.652h-45.713l6.2988 70.994 91.094 25.346 91.094-25.346 12.076-136.12h-161.04l-4.0605-45.15 169.16-0.59571 4.0254-45.385h-111.25z" fill="#fff" stroke-width=".41942" style="font-variation-settings:'wght' 800"/>
  </mask>
 </defs>
 <g>
  <path transform="matrix(1.0282 0 0 1.0282 -7.2183 -7.2083)" d="m80.121 105.12h175.88v399.85l-144.01-40.121zm351.76 0h-175.88v399.85l144.01-40.121z" fill="#e44d26" stroke-width=".66349" style="font-variation-settings:'wght' 800"/>
  <path d="m402.98 131.07h-146.98v350.27l120.35-35.146z" fill="#f16529" stroke-width=".5677" style="font-variation-settings:'wght' 800;mix-blend-mode:normal"/>
 </g>
 <g>
  <g transform="matrix(1.0282 0 0 1.0282 -7.2183 -7.2083)" mask="url(#mask17528)">
   <rect x="256" y="157.82" width="124.52" height="291.04" fill="#fff" style="font-variation-settings:'wght' 800"/>
   <rect transform="scale(-1,1)" x="-256" y="157.82" width="123.16" height="291.04" fill="#e6e6e6" stroke-width=".9945" style="font-variation-settings:'wght' 800"/>
  </g>
 </g>
 <g>
  <path d="m108.2 0v68.879h23.062v-22.907h21.321v22.907h23.062v-68.879h-23.062v22.91h-21.321v-22.91z" stroke-width="1.0589" style="font-variation-settings:'wght' 800"/>
  <path d="m185.51 0.16467v23.062h20.391v45.652h23.062v-45.652h20.393v-23.062z" stroke-width="1.0297" style="font-variation-settings:'wght' 800"/>
  <path d="m259.32 0v68.879h23.062v-32.673l16.072 23.243 16.072-23.243v32.673h23.062v-68.879h-23.062l-16.072 23.245-16.072-23.245z" stroke-width="1.0589" style="font-variation-settings:'wght' 800"/>
  <path d="m348.8 0v68.879h55.715v-23.062h-32.653v-45.817z" stroke-width="1.0589" style="font-variation-settings:'wght' 800"/>
 </g>
</svg>
