<?xml version="1.0" encoding="UTF-8"?>
<!-- Created with Inkscape (http://www.inkscape.org/) -->
<svg version="1.1" viewBox="0 0 512 512" xmlns="http://www.w3.org/2000/svg">
 <rect width="512" height="512" ry="0" fill="#f0db4f" stroke-width="2.589" style="font-variation-settings:'wght' 800"/>
 <g>
  <path d="m469.67 389.89c-3.7505-23.358-18.981-42.977-64.098-61.272-15.673-7.2024-33.145-12.36-38.351-24.237-8.58-24.396 14.309-33.874 31.488-28.908 8.274 2.773 16.106 9.1492 20.83 19.321 22.094-14.307 22.049-14.213 37.476-24.045-5.6482-8.7566-8.6625-12.797-12.36-16.544-13.288-14.842-31.394-22.487-60.351-21.902-19.039 1.4615-40.618 10.273-51.39 23.362-24.237 27.501-17.325 75.631 12.168 95.439 29.055 21.808 71.738 26.769 77.19 47.161 5.3047 24.965-18.348 33.047-41.857 30.176-17.325-3.6032-26.961-12.409-37.378-28.421-19.174 11.096-19.174 11.096-38.887 22.433 4.5682 10.232 9.4649 15.896 18.017 24.759 57.675 46.488 161.95 25.688 147.5-57.323zm-191.7-154.57h-47.889l-0.19631 129.02c0 26.331 1.362 45.261-2.9202 52.659-7.0061 14.552-25.161 12.748-33.435 9.9263-10.95-5.8996-14.232-14.235-20.392-22.724l-38.936 23.844c6.4744 13.288 16.012 24.822 28.229 32.315 18.249 10.953 42.777 14.311 68.429 8.4212 16.695-4.8629 31.1-14.936 38.642-30.27 10.904-20.102 8.5644-46.756 8.4662-73.668 0.2454-43.906 4e-3 -85.48 4e-3 -129.52z" fill="#323330" stroke-width="4.09"/>
 </g>
</svg>
