<?xml version="1.0" encoding="UTF-8"?>
<svg version="1.1" viewBox="0 0 512 512" xmlns="http://www.w3.org/2000/svg">
 <path d="m256 0a7.3501 7.3501 0 0 0-6.2488 3.4833l-13.512 21.818c-1.9635 0.16698-3.9263 0.3391-5.8756 0.55503l-17.502-18.727a7.3501 7.3501 0 0 0-12.249 2.4402l-8.9953 24.01c-1.8917 0.54891-3.7839 1.0886-5.6555 1.6842l-20.823-14.967a7.3501 7.3501 0 0 0-11.541 4.7847l-4.1436 25.407c-1.7294 0.90067-3.4639 1.7942-5.1675 2.7369l-23.407-10.67a7.3501 7.3501 0 0 0-10.392 6.9474l0.91867 25.809c-1.4856 1.1915-2.9657 2.3903-4.4211 3.6172l-25.148-5.9235a7.3501 7.3501 0 0 0-8.8326 8.8422l5.9235 25.139c-1.2276 1.4563-2.4251 2.9346-3.6172 4.4211l-25.809-0.91867a7.3501 7.3501 0 0 0-6.9474 10.392l10.67 23.416c-0.94153 1.7016-1.8373 3.4306-2.7369 5.1579l-25.407 4.1436a7.3501 7.3501 0 0 0-4.7847 11.541l14.967 20.833c-0.5945 1.8681-1.1363 3.7578-1.6842 5.646l-24.01 8.9953a7.3501 7.3501 0 0 0-2.4402 12.249l18.727 17.502c-0.21602 1.9498-0.38798 3.9117-0.55503 5.8756l-21.818 13.512a7.3501 7.3501 0 0 0 0 12.498l21.818 13.512c0.16712 1.9639 0.33891 3.9258 0.55503 5.8756l-18.727 17.502a7.3501 7.3501 0 0 0 2.4402 12.249l24.019 9.0048c0.54794 1.8871 1.0802 3.7788 1.6747 5.646l-14.967 20.823a7.3501 7.3501 0 0 0 4.7847 11.541l25.416 4.1436c0.89858 1.7248 1.7965 3.4491 2.7369 5.1484l-10.679 23.426a7.3501 7.3501 0 0 0 6.9474 10.392l25.818-0.91867c1.1872 1.4802 2.3852 2.9517 3.6077 4.4019l-5.9235 25.168a7.3501 7.3501 0 0 0 8.8326 8.8326l25.158-5.9235c1.452 1.224 2.9294 2.4189 4.4115 3.6077l-0.91867 25.818a7.3501 7.3501 0 0 0 10.392 6.9474l23.436-10.67c1.693 0.93679 3.4108 1.8319 5.1292 2.7273l4.1531 25.416a7.3501 7.3501 0 0 0 11.541 4.7847l20.833-14.967c1.868 0.59471 3.7579 1.1362 5.646 1.6842l8.9953 24.01a7.3501 7.3501 0 0 0 12.249 2.4402l17.502-18.727c1.9498 0.21607 3.9117 0.38805 5.8756 0.55507l13.512 21.818a7.3501 7.3501 0 0 0 12.498 0l13.512-21.818c1.9639-0.16707 3.9258-0.33905 5.8756-0.55507l17.502 18.727a7.3501 7.3501 0 0 0 12.249-2.4402l8.9953-24.01c1.888-0.54806 3.7779-1.0895 5.646-1.6842l20.833 14.967a7.3501 7.3501 0 0 0 11.541-4.7847l4.1531-25.416c1.7184-0.89534 3.4362-1.7905 5.1292-2.7273l23.436 10.67a7.3501 7.3501 0 0 0 10.392-6.9474l-0.91867-25.818c1.4821-1.1888 2.9595-2.3836 4.4115-3.6077l25.158 5.9235a7.3501 7.3501 0 0 0 8.8326-8.8326l-5.9235-25.168c1.2224-1.4502 2.4204-2.9218 3.6077-4.4019l25.818 0.91867a7.3501 7.3501 0 0 0 6.9474-10.392l-10.679-23.426c0.94039-1.6992 1.8383-3.4235 2.7368-5.1484l25.416-4.1436a7.3501 7.3501 0 0 0 4.7847-11.541l-14.967-20.823c0.59448-1.8671 1.1267-3.7588 1.6746-5.646l24.019-9.0048a7.3501 7.3501 0 0 0 2.4402-12.249l-18.727-17.502c0.21607-1.9498 0.38805-3.9117 0.55503-5.8756l21.818-13.512a7.3501 7.3501 0 0 0 0-12.498l-21.818-13.512c-0.16708-1.9639-0.33905-3.9258-0.55503-5.8756l18.727-17.502a7.3501 7.3501 0 0 0-2.4402-12.249l-24.01-8.9953c-0.54806-1.888-1.0895-3.7779-1.6842-5.646l14.967-20.833a7.3501 7.3501 0 0 0-4.7847-11.541l-25.416-4.1436c-0.89858-1.7248-1.7965-3.4491-2.7368-5.1484l10.679-23.426a7.3501 7.3501 0 0 0-6.9474-10.392l-25.818 0.91867c-1.1876-1.4806-2.3849-2.9513-3.6077-4.4019l5.9235-25.158a7.3501 7.3501 0 0 0-8.8326-8.8422l-25.158 5.9235c-1.452-1.224-2.9294-2.4189-4.4115-3.6077l0.91867-25.818a7.3501 7.3501 0 0 0-10.392-6.9474l-23.426 10.679c-1.6992-0.9404-3.4235-1.8383-5.1484-2.7369l-4.1436-25.416a7.3501 7.3501 0 0 0-11.541-4.7847l-20.833 14.967c-1.8675-0.59452-3.7584-1.1267-5.646-1.6747l-8.9953-24.019a7.3501 7.3501 0 0 0-12.249-2.4402l-17.502 18.727c-1.9498-0.21612-3.9117-0.3879-5.8756-0.55503l-13.512-21.818a7.3501 7.3501 0 0 0-6.2488-3.4833zm-0.34449 44.976a15.189 15.238 0 0 1 14.794 15.244 15.238 15.238 0 0 1-30.469 0 15.238 15.238 0 0 1 15.675-15.244zm-34.44 25.091 23.464 24.593c5.2915 5.5365 14.062 5.7807 19.598 0.44018l26.268-25.034a187.51 187.51 0 0 1 128.36 91.426l-17.981 40.565c-3.0867 7.0064 0.0953 15.238 7.0527 18.373l34.594 15.34a187.51 187.51 0 0 1 0.39236 32.527h-19.254c-1.9108 0-2.6986 1.2769-2.6986 3.1388v8.8134c0 20.774-11.711 25.333-22 26.459-9.7991 1.1269-20.628-4.1087-22-10.086-5.7815-32.484-15.376-39.394-30.565-51.397 18.863-11.955 38.46-29.648 38.46-53.263 0-25.527-17.491-41.595-29.397-49.484-16.756-11.024-35.28-13.225-40.278-13.225h-198.92a187.51 187.51 0 0 1 104.9-59.187zm-147.24 112.79a15.238 15.238 0 0 1 14.794 15.235 15.238 15.238 0 0 1-30.469 0 15.238 15.238 0 0 1 15.675-15.235zm363.3 0.689a15.238 15.238 0 0 1 14.794 15.235 15.238 15.238 0 0 1-30.469 0 15.238 15.238 0 0 1 15.675-15.235zm-334.59 2.4498h26.555v119.74h-53.608a187.51 187.51 0 0 1-6.0766-71.579l32.833-14.603c7.0064-3.1357 10.188-11.319 7.0527-18.325zm110.82 1.2727h63.254c3.2827 0 23.072 3.7669 23.072 18.613 0 12.298-15.181 16.708-27.675 16.708h-58.699zm0 86.029h48.46c4.4096 0 23.665 1.28 29.79 25.876 1.9108 7.5453 6.1715 32.141 9.0623 40.029 2.8907 8.8192 14.597 26.459 27.091 26.459h79.082a187.51 187.51 0 0 1-17.349 20.086l-32.182-6.9091c-7.4963-1.6168-14.9 3.1832-16.517 10.679l-7.646 35.665a187.51 187.51 0 0 1-156.35-0.72728l-7.6364-35.675c-1.6168-7.4963-8.9727-12.296-16.469-10.679l-31.503 6.7656a187.51 187.51 0 0 1-16.268-19.206h153.22c1.7148 0 2.89-0.29706 2.89-1.9139v-54.192c0-1.5678-1.1751-1.9043-2.89-1.9043h-44.833zm-70.699 124.11a15.238 15.238 0 0 1 14.794 15.244 15.239 15.239 0 0 1-30.479 0 15.238 15.238 0 0 1 15.684-15.244zm225.62 0.689a15.238 15.238 0 0 1 14.804 15.235 15.239 15.239 0 0 1-30.479 0 15.238 15.238 0 0 1 15.675-15.235z" color="#000000" fill="#f74c00" fill-rule="evenodd"/>
</svg>
