<?xml version="1.0" encoding="UTF-8"?>
<!-- Created with Inkscape (http://www.inkscape.org/) -->
<svg version="1.1" viewBox="0 0 512 512" xml:space="preserve" xmlns="http://www.w3.org/2000/svg"><rect x="41.315" y="41.315" width="429.37" height="429.37" ry="41.521" fill="#3178c6" style="paint-order:markers stroke fill"/><path d="m370.45 244.96c-12.69 0.14717-25.306 2.2126-37.627 7.3412-28.77 11.974-40.708 48.771-23.046 75.04 11.594 17.242 31.916 23.655 49.965 31.7 9.3763 4.1791 21.934 11.106 24.039 22.139 2.1316 11.173-10.916 18.048-19.96 19.639-24.351 4.2843-41.34-3.6292-61.18-17.192 0.0147 13.542-0.10429 27.084 0.16867 40.624 0 0 19.758 8.5621 35.401 9.4543 33.299 2.6765 81.228-2.2163 88.357-42.737 7.9167-37.04-18.659-55.848-48.878-68.198-11.001-4.4964-37.977-15.219-31.42-31.324 3.3185-8.151 11.952-11.667 20-13.21 19.032-3.6481 36.304 3.7739 53.024 11.58v-38.342c-16.091-3.7227-32.527-6.7039-48.842-6.5147zm-230.15 4.0677v33.446h52.209v149.28h41.604v-149.28h52.207v-33.446z" fill="#fff" style="paint-order:markers stroke fill"/></svg>
