<?xml version="1.0" encoding="UTF-8"?>
<!-- Created with Inkscape (http://www.inkscape.org/) -->
<svg version="1.1" viewBox="0 0 512 512" xml:space="preserve" xmlns="http://www.w3.org/2000/svg"><defs><mask id="mask3491" maskUnits="userSpaceOnUse"><path d="m144.75 177.04 11.994 135.21h152.68l-4.2969 56.703-49.119 13.646-48.979-13.646-2.7012-35.652h-45.713l6.2988 70.994 91.094 25.346 91.094-25.346 12.076-136.12h-161.04l-4.0606-45.15 169.16-0.59571 4.0254-45.385h-111.25z" fill="#fff" stroke-width=".41942" style="font-variation-settings:'wght' 800"/></mask></defs><g transform="matrix(.92098 0 0 .92098 20.229 6.9631)"><path class="UnoptimicedTransforms" transform="matrix(1.0282 0 0 1.0282 -7.2183 -7.2083)" d="m80.121 105.12h175.88v399.85l-144.01-40.121zm351.76 0h-175.88v399.85l144.01-40.121z" fill="#e44d26" stroke-width=".66349" style="font-variation-settings:'wght' 800"/><path d="m402.98 131.07h-146.98v350.27l120.35-35.146z" fill="#fc6c2f" stroke-width=".5677" style="font-variation-settings:'wght' 800;mix-blend-mode:normal"/></g><g transform="matrix(.92098 0 0 .92098 20.229 6.9631)"><g transform="matrix(1.0282 0 0 1.0282 -7.2183 -7.2083)" mask="url(#mask3491)"><rect transform="scale(-1,1)" x="-379.16" y="157.82" width="246.31" height="291.04" fill="#e6e6e6" stroke-width="1.4064" style="font-variation-settings:'wght' 800"/><rect x="256" y="157.82" width="124.52" height="291.04" fill="#fff" style="font-variation-settings:'wght' 800"/></g></g><g transform="matrix(.89776 0 0 .89776 26.173 18.851)"><path d="m104.37 0v70.66h23.659v-23.5h21.872v23.5h23.659v-70.66h-23.659v23.502h-21.872v-23.502z" stroke-width="1.0862" style="font-variation-settings:'wght' 800"/><path d="m183.68 0v23.659h20.919v46.833h23.659v-46.833h20.921v-23.659z" stroke-width="1.0563" style="font-variation-settings:'wght' 800"/><path d="m259.4 0v70.66h23.659v-33.518l16.487 23.844 16.487-23.844v33.518h23.659v-70.66h-23.659l-16.487 23.846-16.487-23.846z" stroke-width="1.0862" style="font-variation-settings:'wght' 800"/><path d="m351.19 0v70.66h57.156v-23.659h-33.498v-47.002z" stroke-width="1.0862" style="font-variation-settings:'wght' 800"/></g></svg>
