<?xml version="1.0" encoding="UTF-8" standalone="no"?>
<!-- Created with Inkscape (http://www.inkscape.org/) -->

<svg
   width="512"
   height="512"
   viewBox="0 0 512 512"
   version="1.1"
   id="svg5"
   inkscape:version="1.2 (dc2aedaf03, 2022-05-15)"
   sodipodi:docname="WA.svg"
   xml:space="preserve"
   xmlns:inkscape="http://www.inkscape.org/namespaces/inkscape"
   xmlns:sodipodi="http://sodipodi.sourceforge.net/DTD/sodipodi-0.dtd"
   xmlns="http://www.w3.org/2000/svg"
   xmlns:svg="http://www.w3.org/2000/svg"><sodipodi:namedview
     id="namedview7"
     pagecolor="#505050"
     bordercolor="#ffffff"
     borderopacity="1"
     inkscape:pageshadow="0"
     inkscape:pageopacity="0"
     inkscape:pagecheckerboard="1"
     inkscape:document-units="px"
     showgrid="false"
     inkscape:snap-page="true"
     inkscape:zoom="1.158716"
     inkscape:cx="221.36572"
     inkscape:cy="349.52482"
     inkscape:window-width="1920"
     inkscape:window-height="1011"
     inkscape:window-x="0"
     inkscape:window-y="32"
     inkscape:window-maximized="1"
     inkscape:current-layer="svg5"
     inkscape:showpageshadow="0"
     inkscape:deskcolor="#505050" /><defs
     id="defs2"><linearGradient
       id="linearGradient29561"
       inkscape:swatch="solid"><stop
         style="stop-color:#f0db4f;stop-opacity:1;"
         offset="0"
         id="stop29559" /></linearGradient><style
       id="style2">
      .cls-1 {
        fill: #393939;
      }

      .cls-2 {
        fill: #654ff0;
      }
    </style></defs><g
     inkscape:label="Background"
     id="layer1-6"
     style="display:inline"
     transform="matrix(0.8386116,0,0,0.8386116,41.315426,41.315413)"><g
       id="icon"
       transform="matrix(4.75748,0,0,4.75748,-463.52128,0)" /><path
       id="path1485"
       style="stroke-width:4.75748"
       class="cls-2"
       d="M 5e-6,4e-5 V 512 H 512 V 4e-5 H 314.56445 v 2.75781 a 58.707303,58.707303 0 0 1 -117.41406,0 V 4e-5 Z" /></g><g
     id="layer3-5"
     inkscape:label="WA"
     transform="matrix(0.8386116,0,0,0.8386116,41.315426,41.315413)"><path
       id="rect1121"
       style="display:inline;fill:#ffffff"
       d="m 118.74609,275.93359 38.91602,181.25977 h 34.34961 l 26.97461,-123.36133 h 0.42773 l 24.92969,123.36133 h 33.7793 l 43.24414,-181.25977 h -33.30274 l -26.49804,124.88477 h -0.42774 L 236.01953,275.93359 H 204.28711 L 176.3125,399.29492 h -0.42773 l -23.2168,-123.36133 z m 240.82422,0 -43.86328,181.25977 h 33.91992 l 8.89649,-40.34375 h 61.03906 l 11.56055,40.34375 h 35.30078 L 413.0918,275.93359 Z m 20.41016,44.67383 h 14.27148 l 16.98438,66.50781 h -46.05274 z" /></g></svg>
