<?xml version="1.0" encoding="UTF-8" standalone="no"?>
<!-- Created with Inkscape (http://www.inkscape.org/) -->

<svg
   width="512"
   height="512"
   viewBox="0 0 512 512"
   version="1.1"
   id="svg5"
   inkscape:version="1.2 (dc2aedaf03, 2022-05-15)"
   sodipodi:docname="Go.svg"
   xml:space="preserve"
   xmlns:inkscape="http://www.inkscape.org/namespaces/inkscape"
   xmlns:sodipodi="http://sodipodi.sourceforge.net/DTD/sodipodi-0.dtd"
   xmlns="http://www.w3.org/2000/svg"
   xmlns:svg="http://www.w3.org/2000/svg"><sodipodi:namedview
     id="namedview7"
     pagecolor="#505050"
     bordercolor="#ffffff"
     borderopacity="1"
     inkscape:pageshadow="0"
     inkscape:pageopacity="0"
     inkscape:pagecheckerboard="1"
     inkscape:document-units="px"
     showgrid="false"
     inkscape:snap-page="true"
     inkscape:snap-bbox="true"
     inkscape:bbox-paths="true"
     inkscape:bbox-nodes="true"
     inkscape:snap-bbox-edge-midpoints="true"
     inkscape:snap-bbox-midpoints="true"
     inkscape:snap-object-midpoints="true"
     inkscape:zoom="1.158716"
     inkscape:cx="305.94209"
     inkscape:cy="259.7703"
     inkscape:window-width="1920"
     inkscape:window-height="1011"
     inkscape:window-x="0"
     inkscape:window-y="32"
     inkscape:window-maximized="1"
     inkscape:current-layer="svg5"
     inkscape:showpageshadow="0"
     inkscape:deskcolor="#505050" /><defs
     id="defs2" /><g
     inkscape:label="go"
     inkscape:groupmode="layer"
     id="layer1"><g
       id="g1188"
       transform="matrix(0.93698872,0,0,0.93698872,0.09068381,166.29679)"><path
         d="m 38.542332,57.919589 c -0.99714,0 -1.24643,-0.49857 -0.74786,-1.24642 l 5.23498,-6.73068 c 0.49857,-0.74786 1.74499,-1.24643 2.74213,-1.24643 h 88.994578 c 0.99714,0 1.24642,0.74786 0.74785,1.49571 l -4.23784,6.4814 c -0.49857,0.74785 -1.74499,1.49571 -2.49284,1.49571 z"
         id="path824"
         style="fill:#007d9c;fill-opacity:1;fill-rule:evenodd;stroke-width:2.49285" /><path
         d="m 0.90035189,80.853777 c -0.99713,0 -1.24642,-0.49857 -0.74785,-1.24643 L 5.3874818,72.876669 c 0.49856,-0.74786 1.74499,-1.24642 2.74213,-1.24642 H 121.80336 c 0.99714,0 1.49571,0.74785 1.24642,1.4957 l -1.99427,5.982828 c -0.24929,0.99714 -1.24643,1.49571 -2.24357,1.49571 z"
         id="path826"
         style="fill:#007d9c;fill-opacity:1;fill-rule:evenodd;stroke-width:2.49285" /><path
         d="m 61.227222,103.78795 c -0.99714,0 -1.24642,-0.74786 -0.74785,-1.4957 l 3.48998,-6.232123 c 0.49857,-0.74785 1.49571,-1.4957 2.49285,-1.4957 H 116.3191 c 0.99714,0 1.49571,0.74785 1.49571,1.74499 l -0.49857,5.982833 c 0,0.99713 -0.99714,1.74498 -1.74499,1.74498 z"
         id="path828"
         style="fill:#007d9c;fill-opacity:1;fill-rule:evenodd;stroke-width:2.49285" /><path
         d="m 319.9846,53.432469 c -15.70492,3.98855 -26.42416,6.97997 -41.87981,10.96852 -3.73926,0.99714 -3.98855,1.24643 -7.22925,-2.49284 -3.73927,-4.23784 -6.4814,-6.97997 -11.71637,-9.47282 -15.70493,-7.72782 -30.91129,-5.48426 -45.12051,3.73927 -16.95135,10.96852 -25.67631,27.172018 -25.42703,47.364061 0.24928,19.94277 13.95994,36.39555 33.65342,39.13768 16.95135,2.24356 31.16057,-3.73927 42.37838,-16.45278 2.24356,-2.74213 4.23783,-5.73355 6.73068,-9.22353 -8.97424,0 -20.19205,0 -48.11192,0 -5.23498,0 -6.4814,-3.2407 -4.73641,-7.47854 3.2407,-7.72781 9.22353,-20.690613 12.71351,-27.172013 0.74786,-1.4957 2.49285,-3.98855 6.23212,-3.98855 h 90.73958 c -0.49856,6.73068 -0.49856,13.46137 -1.4957,20.19205 -2.74213,17.948483 -9.47282,34.401263 -20.44134,48.859773 -17.94849,23.68203 -41.38124,38.38982 -71.0461,42.37838 -24.42989,3.2407 -47.11479,-1.49571 -67.05756,-16.45279 -18.44705,-13.95993 -28.91701,-32.40699 -31.65914,-55.34117 -3.2407,-27.172013 4.73641,-51.601901 21.18919,-73.040371 17.69921,-23.18347 41.13196,-37.8912605 69.79968,-43.1262405 23.43276,-4.23783 45.86837,-1.49570003 66.06042,12.2149505 13.21208,8.72496 22.6849,20.69062 28.91701,35.14912 1.49571,2.24356 0.49857,3.48999 -2.49285,4.23784 z"
         id="path830"
         style="fill:#007d9c;fill-opacity:1;fill-rule:evenodd;stroke-width:2.49285" /><path
         d="m 402.4978,191.28683 c -22.6849,-0.49857 -43.37552,-6.97996 -60.82544,-21.93704 -14.70779,-12.71351 -23.93132,-28.91701 -26.92273,-48.11192 -4.48712,-28.169153 3.2407,-53.097611 20.19205,-75.283941 18.19777,-23.93132 40.13482,-36.3955405 69.79968,-41.6305205 25.42703,-4.48712003 49.35835,-1.99428 71.04611,12.7135105 19.69348,13.46137 31.90842,31.65914 35.14912,55.59046 4.23784,33.653411 -5.48426,61.074721 -28.66772,84.507471 -16.45279,16.70206 -36.64484,27.17202 -59.8283,31.90842 -6.73069,1.24643 -13.46137,1.49571 -19.94277,2.24356 z M 461.82753,90.575867 c -0.24928,-3.2407 -0.24928,-5.73354 -0.74785,-8.22639 -4.48713,-24.679168 -27.17202,-38.639108 -50.85406,-33.154848 -23.18346,5.23498 -38.14054,19.94277 -43.6248,43.375518 -4.48712,19.444193 4.98569,39.137673 22.93418,47.114783 13.71065,5.98283 27.42131,5.23497 40.63339,-1.49571 19.69348,-10.22067 30.41272,-26.17488 31.65914,-47.613353 z"
         fill-rule="nonzero"
         id="path832"
         style="fill:#007d9c;fill-opacity:1;stroke-width:2.49285" /></g></g></svg>
