<?xml version="1.0" encoding="UTF-8"?>
<!-- Created with Inkscape (http://www.inkscape.org/) -->
<svg version="1.1" viewBox="0 0 512 512" xml:space="preserve" xmlns="http://www.w3.org/2000/svg"><defs><style>
      .cls-1 {
        fill: #393939;
      }

      .cls-2 {
        fill: #654ff0;
      }
    </style></defs><g transform="matrix(.83861 0 0 .83861 41.315 41.315)"><rect width="512" height="512" ry="0" fill="#f0db4f" stroke-width="2.589" style="font-variation-settings:'wght' 800"/></g><g transform="matrix(.80812 0 0 .80812 50.544 55.699)"><path d="m462.98 388.37c-3.6004-22.423-18.222-41.258-61.533-58.82-15.046-6.9142-31.819-11.865-36.817-23.267-8.2368-23.42 13.736-32.519 30.229-27.751 7.9429 2.662 15.462 8.7831 19.997 18.548 21.21-13.734 21.167-13.644 35.977-23.083-5.4222-8.4062-8.3159-12.285-11.865-15.882-12.757-14.249-30.138-21.587-57.937-21.025-18.277 1.403-38.993 9.8624-49.334 22.427-23.267 26.4-16.632 72.605 11.681 91.62 27.892 20.935 68.867 25.698 74.101 45.274 5.0924 23.966-17.613 31.725-40.182 28.968-16.632-3.4591-25.882-11.912-35.882-27.284-18.406 10.652-18.406 10.652-37.331 21.536 4.3854 9.8222 9.0862 15.26 17.296 23.769 55.367 44.628 155.47 24.66 141.6-55.03zm-184.03-148.39h-45.973l-0.18845 123.86c0 25.278 1.3074 43.45-2.8034 50.552-6.7258 13.97-24.155 12.238-32.098 9.5291-10.512-5.6635-13.662-13.666-19.577-21.815l-37.378 22.89c6.2153 12.757 15.371 23.829 27.099 31.022 17.519 10.515 41.065 13.738 65.691 8.0842 16.027-4.6684 29.856-14.339 37.096-29.059 10.468-19.298 8.2217-44.885 8.1274-70.72 0.23558-42.149 4e-3 -82.06 4e-3 -124.34z" fill="#323330" stroke-width="3.9263"/></g></svg>
