<?xml version="1.0" encoding="UTF-8" standalone="no"?>
<svg
   height="512"
   width="512"
   viewBox="0 0 512 512"
   version="1.1"
   id="svg6"
   sodipodi:docname="Rust.svg"
   inkscape:version="1.1.2 (b8e25be833, 2022-02-05)"
   xmlns:inkscape="http://www.inkscape.org/namespaces/inkscape"
   xmlns:sodipodi="http://sodipodi.sourceforge.net/DTD/sodipodi-0.dtd"
   xmlns="http://www.w3.org/2000/svg"
   xmlns:svg="http://www.w3.org/2000/svg">
  <defs
     id="defs10" />
  <sodipodi:namedview
     id="namedview8"
     pagecolor="#505050"
     bordercolor="#ffffff"
     borderopacity="1"
     inkscape:pageshadow="0"
     inkscape:pageopacity="0"
     inkscape:pagecheckerboard="1"
     showgrid="false"
     inkscape:snap-page="true"
     inkscape:snap-bbox="true"
     inkscape:bbox-paths="true"
     inkscape:bbox-nodes="true"
     inkscape:snap-bbox-edge-midpoints="true"
     inkscape:snap-bbox-midpoints="true"
     inkscape:snap-object-midpoints="true"
     inkscape:zoom="1.0299698"
     inkscape:cx="242.24011"
     inkscape:cy="282.0471"
     inkscape:window-width="1920"
     inkscape:window-height="991"
     inkscape:window-x="-9"
     inkscape:window-y="-9"
     inkscape:window-maximized="1"
     inkscape:current-layer="layer1" />
  <g
     inkscape:groupmode="layer"
     id="layer1"
     inkscape:label="Gear">
    <path
       id="path1777"
       style="color:#000000;fill:#f74c00;fill-rule:evenodd;stroke:none;stroke-width:0;stroke-linecap:round;stroke-linejoin:round;stroke-miterlimit:4;stroke-dasharray:none;fill-opacity:1"
       d="m 255.9985,0 a 7.3500607,7.3500607 0 0 0 -6.24885,3.4832742 L 236.23761,25.301587 c -1.96347,0.166977 -3.92627,0.339098 -5.87563,0.555026 L 212.85948,7.1292286 a 7.3500607,7.3500607 0 0 0 -12.24887,2.440206 l -8.99527,24.0097124 c -1.89174,0.548907 -3.78392,1.088568 -5.65554,1.684221 L 165.13671,20.29677 a 7.3500607,7.3500607 0 0 0 -11.54074,4.784719 l -4.14356,25.40685 c -1.72938,0.90067 -3.46388,1.794152 -5.16749,2.736855 L 120.87808,42.555276 a 7.3500607,7.3500607 0 0 0 -10.39241,6.947411 l 0.91867,25.808764 c -1.48561,1.191483 -2.96567,2.390305 -4.42108,3.617245 L 81.834786,73.005218 A 7.3500607,7.3500607 0 0 0 73.0022,81.847373 l 5.923478,25.138907 c -1.227631,1.45628 -2.425121,2.93457 -3.617245,4.42108 l -25.808764,-0.91867 a 7.3500607,7.3500607 0 0 0 -6.947411,10.39241 l 10.669918,23.4164 c -0.941532,1.70161 -1.837258,3.43064 -2.736855,5.15793 L 25.07847,153.599 a 7.3500607,7.3500607 0 0 0 -4.784718,11.54073 l 14.966596,20.83266 c -0.594501,1.86814 -1.136292,3.7578 -1.68422,5.64597 L 9.5664164,200.61363 A 7.3500607,7.3500607 0 0 0 7.1262105,212.8625 L 25.853594,230.365 c -0.216021,1.94982 -0.387976,3.91173 -0.555027,5.87563 L 3.4802559,249.75268 a 7.3500607,7.3500607 0 0 0 0,12.49768 L 25.298567,275.7624 c 0.167124,1.9639 0.338912,3.9258 0.555027,5.87563 l -18.7273835,17.5025 a 7.3500607,7.3500607 0 0 0 2.4402059,12.24887 l 24.0192806,9.00484 c 0.547941,1.88714 1.080176,3.77883 1.674651,5.64597 l -14.966596,20.82308 a 7.3500607,7.3500607 0 0 0 4.784718,11.54074 l 25.41642,4.14357 c 0.898577,1.72483 1.796459,3.44914 2.736854,5.14835 l -10.679486,23.42598 a 7.3500607,7.3500607 0 0 0 6.947411,10.39241 l 25.818333,-0.91867 c 1.187244,1.48018 2.385233,2.95173 3.607676,4.40194 L 73.0022,430.16522 a 7.3500607,7.3500607 0 0 0 8.832586,8.83259 l 25.158044,-5.92348 c 1.45202,1.22404 2.92945,2.41892 4.41151,3.60768 l -0.91867,25.81832 a 7.3500607,7.3500607 0 0 0 10.39241,6.94742 l 23.43554,-10.6699 c 1.69299,0.93679 3.41082,1.83194 5.12922,2.72728 l 4.15313,25.41642 a 7.3500607,7.3500607 0 0 0 11.54074,4.7847 l 20.83266,-14.9666 c 1.86803,0.59471 3.75792,1.13616 5.64597,1.68422 l 8.99527,24.0097 a 7.3500607,7.3500607 0 0 0 12.24887,2.44022 l 17.5025,-18.7274 c 1.94982,0.21607 3.91173,0.38805 5.87563,0.55507 l 13.51204,21.81828 a 7.3500607,7.3500607 0 0 0 12.49769,0 l 13.51204,-21.81828 c 1.9639,-0.16707 3.92581,-0.33905 5.87563,-0.55507 l 17.5025,18.7274 a 7.3500607,7.3500607 0 0 0 12.24887,-2.44022 l 8.99527,-24.0097 c 1.88805,-0.54806 3.77794,-1.08951 5.64597,-1.68422 l 20.83266,14.9666 a 7.3500607,7.3500607 0 0 0 11.54074,-4.7847 l 4.15313,-25.41642 c 1.7184,-0.89534 3.43623,-1.79049 5.12922,-2.72728 l 23.43554,10.6699 a 7.3500607,7.3500607 0 0 0 10.39241,-6.94742 l -0.91867,-25.81832 c 1.48206,-1.18876 2.95949,-2.38364 4.41151,-3.60768 l 25.15804,5.92348 a 7.3500607,7.3500607 0 0 0 8.83259,-8.83259 l -5.92348,-25.16761 c 1.22244,-1.45021 2.42043,-2.92176 3.60768,-4.40194 l 25.81833,0.91867 a 7.3500607,7.3500607 0 0 0 6.94741,-10.39241 l -10.67948,-23.42598 c 0.94039,-1.69921 1.83827,-3.42352 2.73685,-5.14835 l 25.41642,-4.14357 a 7.3500607,7.3500607 0 0 0 4.78474,-11.54074 l -14.96662,-20.82308 c 0.59448,-1.86714 1.12673,-3.75883 1.67465,-5.64597 l 24.01934,-9.00484 a 7.3500607,7.3500607 0 0 0 2.44017,-12.24887 l -18.72739,-17.5025 c 0.21607,-1.94983 0.38805,-3.91173 0.55503,-5.87563 l 21.81831,-13.51204 a 7.3500607,7.3500607 0 0 0 0,-12.49768 l -21.81831,-13.51205 c -0.16708,-1.9639 -0.33905,-3.92581 -0.55503,-5.87563 l 18.72739,-17.5025 a 7.3500607,7.3500607 0 0 0 -2.44017,-12.24887 l -24.00979,-8.99527 c -0.54806,-1.88805 -1.08952,-3.77794 -1.6842,-5.64597 l 14.96662,-20.83266 A 7.3500607,7.3500607 0 0 0 486.91852,153.599 l -25.41642,-4.14357 c -0.89858,-1.72483 -1.79646,-3.44914 -2.73685,-5.14836 l 10.67948,-23.42597 a 7.3500607,7.3500607 0 0 0 -6.94741,-10.39241 l -25.81833,0.91867 c -1.18757,-1.48058 -2.3849,-2.95134 -3.60768,-4.40194 l 5.92348,-25.158047 a 7.3500607,7.3500607 0 0 0 -8.83259,-8.842155 l -25.15804,5.923478 c -1.45202,-1.22404 -2.92945,-2.418923 -4.41151,-3.607676 l 0.91867,-25.818333 a 7.3500607,7.3500607 0 0 0 -10.39241,-6.947411 l -23.42597,10.679487 c -1.69922,-0.940396 -3.42353,-1.838273 -5.14836,-2.736855 L 358.40102,25.081489 A 7.3500607,7.3500607 0 0 0 346.86028,20.29677 l -20.83266,14.966598 c -1.86753,-0.594522 -3.75843,-1.126686 -5.64597,-1.674652 L 311.38638,9.5694346 a 7.3500607,7.3500607 0 0 0 -12.24887,-2.440206 l -17.5025,18.7273844 c -1.94982,-0.216119 -3.91173,-0.387898 -5.87563,-0.555026 L 262.24734,3.4832742 A 7.3500607,7.3500607 0 0 0 255.9985,0 Z m -0.34449,44.976344 a 15.188607,15.237602 0 0 1 14.79434,15.24411 15.237602,15.237602 0 0 1 -30.46908,0 15.237602,15.237602 0 0 1 15.67474,-15.24411 z m -34.4404,25.091055 23.46425,24.59345 c 5.29152,5.536491 14.06171,5.780701 19.59821,0.440176 l 26.26809,-25.033641 a 187.5058,187.5058 0 0 1 128.36439,91.426396 l -17.98097,40.56483 c -3.08672,7.00636 0.0953,15.2376 7.05267,18.37331 l 34.59351,15.33981 a 187.5058,187.5058 0 0 1 0.39236,32.52651 h -19.2537 c -1.91083,0 -2.69859,1.27694 -2.69858,3.13877 v 8.81345 c 0,20.7741 -11.71108,25.33259 -22.00014,26.45949 -9.7991,1.1269 -20.62825,-4.10873 -22.00012,-10.08619 -5.78147,-32.48401 -15.37617,-39.39353 -30.56478,-51.39743 18.86327,-11.9549 38.45956,-29.64764 38.45956,-53.26347 0,-25.52666 -17.4914,-41.59527 -29.3973,-49.48355 -16.75647,-11.02399 -35.28021,-13.22495 -40.27775,-13.22495 H 116.31346 A 187.5058,187.5058 0 0 1 221.2136,70.067399 Z M 73.978279,182.85276 a 15.237602,15.237602 0 0 1 14.794349,15.23454 15.237602,15.237602 0 0 1 -30.46908,0 15.237602,15.237602 0 0 1 15.674731,-15.23454 z m 363.303581,0.689 a 15.237602,15.237602 0 0 1 14.79435,15.23454 15.237607,15.237607 0 0 1 -30.46908,0 15.237602,15.237602 0 0 1 15.67473,-15.23454 z m -334.5857,2.44977 h 26.55517 V 305.73387 H 75.643361 A 187.5058,187.5058 0 0 1 69.566772,234.1545 L 102.3995,219.55154 c 7.00636,-3.13571 10.18839,-11.31911 7.05268,-18.32547 z m 110.82361,1.27273 h 63.25397 c 3.28269,0 23.07191,3.76692 23.07191,18.61255 0,12.29788 -15.18096,16.70824 -27.67481,16.70824 h -58.69891 z m 0,86.02922 h 48.45962 c 4.4096,0 23.66521,1.28001 29.78965,25.87575 1.91082,7.54531 6.17152,32.14067 9.06226,40.02895 2.89073,8.81919 14.59721,26.45948 27.09107,26.45949 h 79.0818 a 187.5058,187.5058 0 0 1 -17.34938,20.08624 l -32.18201,-6.90913 c -7.49632,-1.61685 -14.89999,3.18317 -16.51684,10.67948 l -7.64598,35.66529 a 187.5058,187.5058 0 0 1 -156.34542,-0.72728 l -7.63641,-35.67485 c -1.61685,-7.49632 -8.97269,-12.29634 -16.469,-10.67949 l -31.50258,6.76559 a 187.5058,187.5058 0 0 1 -16.26804,-19.20585 h 153.21622 c 1.71484,0 2.88997,-0.29706 2.88997,-1.91389 v -54.19171 c 0,-1.56785 -1.17513,-1.90432 -2.88997,-1.90432 h -44.8328 z m -70.69898,124.106 a 15.237602,15.237602 0 0 1 14.79435,15.24411 15.239325,15.239325 0 0 1 -30.47865,0 15.237602,15.237602 0 0 1 15.6843,-15.24411 z m 225.61856,0.689 a 15.237602,15.237602 0 0 1 14.80392,15.23454 15.239325,15.239325 0 0 1 -30.47865,0 15.237602,15.237602 0 0 1 15.67473,-15.23454 z" />
  </g>
</svg>
