<?xml version="1.0" encoding="UTF-8" standalone="no"?>
<!-- Created with Inkscape (http://www.inkscape.org/) -->

<svg
   width="512"
   height="512"
   viewBox="0 0 512 512"
   version="1.1"
   id="svg5"
   inkscape:version="1.2.1 (9c6d41e410, 2022-07-14)"
   sodipodi:docname="ms-javascript.svg"
   xml:space="preserve"
   xmlns:inkscape="http://www.inkscape.org/namespaces/inkscape"
   xmlns:sodipodi="http://sodipodi.sourceforge.net/DTD/sodipodi-0.dtd"
   xmlns="http://www.w3.org/2000/svg"
   xmlns:svg="http://www.w3.org/2000/svg"><sodipodi:namedview
     id="namedview7"
     pagecolor="#505050"
     bordercolor="#ffffff"
     borderopacity="1"
     inkscape:showpageshadow="0"
     inkscape:pageopacity="0"
     inkscape:pagecheckerboard="1"
     inkscape:deskcolor="#505050"
     inkscape:document-units="px"
     showgrid="false"
     inkscape:zoom="0.76580216"
     inkscape:cx="370.20005"
     inkscape:cy="261.16406"
     inkscape:window-width="1920"
     inkscape:window-height="923"
     inkscape:window-x="0"
     inkscape:window-y="32"
     inkscape:window-maximized="1"
     inkscape:current-layer="svg5" /><defs
     id="defs2" /><rect
     style="opacity:1;fill:#3178c6;fill-opacity:1;stroke:none;stroke-width:3.77953;stroke-dashoffset:37.7689;paint-order:markers stroke fill"
     id="rect1397"
     width="429.36914"
     height="429.36914"
     x="41.315434"
     y="41.315434"
     ry="41.521206"
     inkscape:label="Square" /><path
     id="rect1078"
     style="display:inline;opacity:1;fill:#ffffff;fill-opacity:1;stroke:none;stroke-width:3.65742;stroke-dashoffset:37.7689;paint-order:markers stroke fill"
     d="m 370.44696,244.95693 c -12.68962,0.14717 -25.30635,2.21264 -37.62736,7.34118 -28.77,11.97446 -40.70836,48.77111 -23.04567,75.04001 11.5935,17.24177 31.91587,23.65472 49.96524,31.69968 9.37629,4.17912 21.93387,11.10555 24.03932,22.13943 2.13157,11.1734 -10.91598,18.04846 -19.96025,19.63918 -24.35107,4.28433 -41.34023,-3.6292 -61.1803,-17.19211 0.0147,13.54213 -0.10429,27.08416 0.16867,40.62416 0,0 19.75781,8.56212 35.40067,9.45427 33.29907,2.67647 81.22789,-2.2163 88.35677,-42.73725 7.91667,-37.0401 -18.6589,-55.84798 -48.8785,-68.1985 -11.00127,-4.49644 -37.97662,-15.2189 -31.4204,-31.3235 3.31848,-8.15102 11.95191,-11.66735 20.00015,-13.20995 19.03235,-3.64806 36.30438,3.77389 53.02407,11.57984 v -38.34171 c -16.0909,-3.72274 -32.52718,-6.70394 -48.84241,-6.51473 z m -230.14524,4.06767 v 33.44569 h 52.20902 v 149.28396 h 41.60382 V 282.47029 h 52.20711 V 249.0246 Z"
     sodipodi:nodetypes="sccscccccccccccsccccccccc"
     inkscape:label="TS" /></svg>
