<?xml version="1.0" encoding="UTF-8"?>
<!-- Created with Inkscape (http://www.inkscape.org/) -->
<svg version="1.1" viewBox="0 0 512 512" xml:space="preserve" xmlns="http://www.w3.org/2000/svg"><g><circle cx="256" cy="256" r="162.91" fill="#00007e" style="font-variation-settings:'wght' 800;paint-order:stroke markers fill"/><circle cx="323.38" cy="188.99" r="48.36" fill="#fff" style="font-variation-settings:'wght' 800;paint-order:stroke markers fill"/><circle cx="420.62" cy="93.092" r="48.36" fill="#00007e" style="font-variation-settings:'wght' 800;paint-order:stroke markers fill"/></g><path d="m248.38 41.022c-6.1235 0.21472-12.238 0.6889-18.322 1.4223l0.57255 4.7507c5.9487-0.7171 11.928-1.1822 17.917-1.3922zm19.34 0.1723-0.25357 4.7777c5.9827 0.31766 11.952 0.89263 17.886 1.7223l0.66275-4.7387c-6.0691-0.84863-12.175-1.4364-18.295-1.7613zm-56.744 4.4204c-5.9937 1.2758-11.934 2.8095-17.797 4.5972l1.3957 4.5759c5.73-1.7472 11.536-3.2451 17.396-4.4924zm94.056 0.88237-1.0863 4.659c5.8341 1.3603 11.61 2.9739 17.305 4.8342l1.4866-4.5486c-5.8259-1.9033-11.736-3.553-17.705-4.9446zm-130.08 10.186c-5.6776 2.3082-11.256 4.8624-16.713 7.6528l2.1787 4.2585c5.3338-2.7276 10.786-5.2234 16.335-7.4795zm165.89 1.5876-1.8902 4.3952c5.5044 2.365 10.909 4.9687 16.189 7.7989l2.259-4.2164c-5.4015-2.8953-10.927-5.5584-16.558-7.9777zm-199.41 15.635c-5.1844 3.2678-10.228 6.759-15.113 10.459l2.8883 3.8143c4.7756-3.6178 9.7064-7.0311 14.775-10.226zm-29.996 22.814c-4.5364 4.1201-8.8962 8.4361-13.064 12.928l3.508 3.2533c4.0756-4.3922 8.3372-8.6114 12.772-12.639zm-25.577 27.677c-3.7526 4.8451-7.2967 9.8513-10.622 14.998l4.0198 2.5966c3.2519-5.033 6.7155-9.9279 10.384-14.665zm-20.378 31.702c-2.8506 5.4251-5.4681 10.973-7.8428 16.623l4.4109 1.8541c2.3216-5.5233 4.8811-10.947 7.6678-16.25zm382.93 3.6451-4.2764 2.1437c2.6836 5.3563 5.1349 10.828 7.3468 16.396l4.446-1.7657c-2.2628-5.6957-4.771-11.294-7.5163-16.774zm-397.46 31.134c-1.8551 5.8411-3.4582 11.761-4.8012 17.741l4.669 1.0486c1.3126-5.8449 2.8792-11.633 4.6926-17.343zm411.3 3.9228-4.5884 1.3568c1.701 5.7438 3.1528 11.563 4.3514 17.433l4.6876-0.95782c-1.2261-6.0044-2.7101-11.955-4.4505-17.832zm-419.48 32.867c-0.79924 6.0757-1.3391 12.185-1.615 18.307l4.7802 0.21607c0.26976-5.9851 0.79635-11.96 1.5778-17.9zm426.95 4.0734-4.7538 0.53525c0.62911 5.5832 1.0314 11.193 1.2157 16.811l4.7811-0.15631c-0.18841-5.742-0.59942-11.478-1.2431-17.19zm-423.8 33.369-4.7795 0.20492c0.26305 6.1221 0.78701 12.232 1.5678 18.31l4.7457-0.60982c-0.76362-5.9435-1.2768-11.918-1.534-17.905zm420.29-2.7777c-0.17476 5.9894-0.60446 11.973-1.2907 17.924l4.7518 0.54817c0.70203-6.0883 1.1417-12.208 1.3204-18.333zm-415.5 39.317-4.6702 1.0321c1.3227 5.9847 2.9041 11.911 4.7381 17.759l4.5654-1.431c-1.793-5.7166-3.3407-11.511-4.6334-17.36zm411.2-2.7202c-1.2178 5.8657-2.6887 11.68-4.4095 17.418l4.5823 1.3732c1.7606-5.8707 3.2666-11.817 4.5124-17.818zm-400.1 37.852-4.4174 1.8378c2.3547 5.6585 4.9553 11.215 7.7891 16.649l4.2424-2.2119c-2.7703-5.3121-5.3126-10.744-7.6141-16.275zm389.45-2.5796c-2.2301 5.5603-4.7006 11.025-7.4019 16.373l4.2711 2.1562c2.7634-5.4702 5.2896-11.06 7.5711-16.749zm-372.34 35.215-4.0263 2.5828c3.3096 5.1582 6.8419 10.174 10.58 15.029l3.7889-2.9193c-3.6556-4.7476-7.1077-9.65-10.343-14.692zm355.66-2.3583c-3.1685 5.0849-6.5564 10.034-10.149 14.829l3.8303 2.8685c3.6741-4.9045 7.138-9.9666 10.379-15.168zm-333.12 31.508-3.5163 3.2453c4.1569 4.5023 8.5063 8.8276 13.031 12.96l3.2262-3.5333c-4.4245-4.0406-8.6765-8.2694-12.741-12.672zm310.97-2.0572c-4.0036 4.4572-8.1996 8.7425-12.569 12.842l3.2725 3.4892c4.4686-4.1927 8.7602-8.5752 12.855-13.134zm-283.7 26.848-2.8973 3.807c4.8751 3.7119 9.9084 7.2169 15.084 10.499l2.5623-4.0392c-5.0591-3.2089-9.9811-6.6373-14.749-10.267zm256.78-1.6907c-4.7168 3.694-9.594 7.1856-14.61 10.464l2.6176 4.0046c5.1294-3.3522 10.116-6.9221 14.941-10.701zm-225.62 21.366-2.1923 4.2536c5.4477 2.8069 11.018 5.3785 16.688 7.7059l1.8162-4.4246c-5.5419-2.2749-10.986-4.7908-16.311-7.5348zm194.72-1.2805c-5.2894 2.8132-10.7 5.3994-16.212 7.7468l1.8746 4.4012c5.6385-2.4013 11.174-5.0458 16.584-7.9236zm-160.61 15.203-1.411 4.5723c5.8564 1.8073 11.79 3.3601 17.78 4.6559l1.0128-4.6753c-5.8558-1.2668-11.657-2.7863-17.382-4.5529zm126.68-0.84096c-5.7007 1.8406-11.483 3.4338-17.322 4.7744l1.0711 4.6614c5.9733-1.3714 11.888-2.9997 17.72-4.8828zm-90.651 8.5507-0.58569 4.7492c6.0829 0.75196 12.196 1.238 18.319 1.4668l0.17863-4.7808c-5.9883-0.22381-11.967-0.70026-17.912-1.4352zm54.723-0.3745c-5.9354 0.8134-11.907 1.3709-17.893 1.6777l0.24592 4.7763c6.1184-0.31362 12.224-0.88306 18.296-1.7152z" color="#000000" fill="#999" stroke-dasharray="18.1795, 19.1363" stroke-dashoffset="23.92" stroke-width=".95748" style="-inkscape-stroke:none"/><g transform="matrix(.96283 0 0 .95217 10.887 10.882)" fill="#fff" stroke-width="14.591" aria-label="Lua"><path d="m152.01 231.18v100.7h56.03v12.762h-70.505v-113.46z"/><path d="m286.95 344.64h-11.673v-11.362q-5.7587 8.0933-11.984 11.517t-15.253 3.4241q-11.829 0-18.988-6.07-7.0038-6.07-7.0038-16.187v-62.879h12.918v57.742q0 7.3151 4.5136 11.673t12.296 4.3579q10.117 0 16.187-7.4707 6.07-7.6264 6.07-20.078v-46.225h12.918z"/><path d="m304.54 287.21c0.62256-17.639 11.517-26.459 32.684-26.459 10.065 0 17.691 1.9196 22.879 5.7587 5.188 3.7354 7.782 9.2346 7.782 16.498v47.937c0 4.2542 2.3346 6.3812 7.0038 6.3812 0.93384 0 1.8677-0.10376 2.8015-0.31128v9.8053c-3.6316 0.93384-6.5888 1.4008-8.8715 1.4008-4.1504 0-7.3151-0.98572-9.494-2.9572-2.0752-1.8677-3.3722-4.8767-3.891-9.0271-8.7158 7.9895-17.95 11.984-27.704 11.984-8.197 0-14.734-2.179-19.611-6.5369-4.773-4.3579-7.1594-9.7103-7.1594-17.077 0-2.3865 0.31272-5.3021 0.72776-7.2735 0.7777-2.9349 3.271-7.9048 6.8365-11.065 3.7381-2.8127 7.2824-4.2334 11.735-5.3622 1.2451-0.41504 3.4241-0.88196 6.5369-1.4008s5.3955-0.88196 6.8482-1.0895 4.0466-0.57068 7.782-1.0895c5.0842-0.62256 8.6121-1.6083 10.584-2.9572s2.9572-3.3722 2.9572-6.07v-3.4241c0-3.9429-1.6083-6.9519-4.8248-9.0271-3.1128-2.0752-7.5745-3.1128-13.385-3.1128-6.0181 0-10.584 1.1932-13.696 3.5797-3.1128 2.2827-4.9286 5.9143-5.4474 10.895zm25.992 49.649c7.1594 0 13.022-1.8677 17.587-5.603 4.5654-3.8391 6.8482-7.9376 6.8482-12.296v-14.63c-2.594 1.2451-6.5369 2.2827-11.829 3.1128-5.188 0.83008-9.7016 1.5564-13.541 2.179s-7.3151 2.1271-10.428 4.5136c-3.1128 2.2827-4.6692 5.4993-4.6692 9.6497s1.4008 7.367 4.2023 9.6497 6.7444 3.4241 11.829 3.4241z"/></g></svg>
