<?xml version="1.0" encoding="UTF-8" standalone="no"?>
<!-- Created with Inkscape (http://www.inkscape.org/) -->

<svg
   width="512"
   height="512"
   viewBox="0 0 512 512"
   version="1.1"
   id="svg5"
   xml:space="preserve"
   inkscape:version="1.2 (dc2aedaf03, 2022-05-15)"
   sodipodi:docname="luabrazzzzzz.svg"
   xmlns:inkscape="http://www.inkscape.org/namespaces/inkscape"
   xmlns:sodipodi="http://sodipodi.sourceforge.net/DTD/sodipodi-0.dtd"
   xmlns="http://www.w3.org/2000/svg"
   xmlns:svg="http://www.w3.org/2000/svg"><sodipodi:namedview
     id="namedview7"
     pagecolor="#505050"
     bordercolor="#ffffff"
     borderopacity="1"
     inkscape:showpageshadow="0"
     inkscape:pageopacity="0"
     inkscape:pagecheckerboard="1"
     inkscape:deskcolor="#505050"
     inkscape:document-units="px"
     showgrid="false"
     inkscape:zoom="1.1670024"
     inkscape:cx="209.51114"
     inkscape:cy="295.62921"
     inkscape:window-width="1920"
     inkscape:window-height="1011"
     inkscape:window-x="0"
     inkscape:window-y="32"
     inkscape:window-maximized="1"
     inkscape:current-layer="svg5" /><defs
     id="defs2" /><g
     inkscape:groupmode="layer"
     id="layer3"
     inkscape:label="moon"><circle
       style="font-variation-settings:'wght' 800;opacity:1;fill:#00007e;fill-opacity:1;stroke:none;stroke-width:5.09081;stroke-linecap:round;stroke-linejoin:round;stroke-opacity:1;paint-order:stroke markers fill"
       id="path1430"
       cx="256.00247"
       cy="255.99796"
       r="162.90585"
       inkscape:label="earth" /><circle
       style="font-variation-settings:'wght' 800;opacity:1;fill:#ffffff;fill-opacity:1;stroke:none;stroke-width:1.51124;stroke-linecap:round;stroke-linejoin:round;stroke-opacity:1;paint-order:stroke markers fill"
       id="circle2680"
       cx="323.3844"
       cy="188.99268"
       r="48.359859"
       inkscape:label="moonlight" /><circle
       style="font-variation-settings:'wght' 800;opacity:1;fill:#00007e;fill-opacity:1;stroke:none;stroke-width:1.51124;stroke-linecap:round;stroke-linejoin:round;stroke-opacity:1;paint-order:stroke markers fill"
       id="circle2682"
       cx="420.62399"
       cy="93.092094"
       r="48.359859"
       inkscape:label="moon" /><path
       style="color:#000000;fill:#999999;stroke-width:0.957484;stroke-dasharray:18.1795, 19.1363;stroke-dashoffset:23.9204;-inkscape-stroke:none"
       d="m 248.38084,41.022189 c -6.12348,0.214717 -12.23826,0.688903 -18.32194,1.422274 l 0.57255,4.750676 c 5.9487,-0.717098 11.92838,-1.182211 17.9169,-1.392192 z m 19.33954,0.172301 -0.25357,4.777685 c 5.98268,0.317662 11.95227,0.892626 17.88587,1.722307 l 0.66275,-4.738671 c -6.06909,-0.848626 -12.17529,-1.43638 -18.29505,-1.761321 z m -56.74394,4.420378 c -5.99374,1.275771 -11.93447,2.809496 -17.79714,4.597188 l 1.39574,4.575947 c 5.72995,-1.747222 11.53619,-3.245053 17.39642,-4.492403 z m 94.05645,0.882371 -1.08633,4.658965 c 5.8341,1.360258 11.61034,2.973882 17.30465,4.834211 l 1.48663,-4.54856 c -5.82591,-1.903323 -11.73617,-3.552961 -17.70495,-4.944616 z M 174.94945,56.683246 c -5.67764,2.308202 -11.25644,4.862402 -16.71306,7.652777 l 2.1787,4.258461 c 5.3338,-2.727564 10.78568,-5.223406 16.33515,-7.479508 z m 165.88799,1.587602 -1.89018,4.395227 c 5.50437,2.364951 10.90889,4.968659 16.18913,7.798928 l 2.25901,-4.216434 c -5.4015,-2.895264 -10.92712,-5.558432 -16.55796,-7.977721 z M 141.42696,73.906069 c -5.18435,3.26783 -10.22841,6.758961 -15.1132,10.45949 l 2.88829,3.814269 c 4.7756,-3.61781 9.70639,-7.03108 14.7747,-10.225765 z M 111.43092,96.72041 c -4.53645,4.12012 -8.89617,8.43607 -13.064137,12.92782 l 3.507987,3.25327 c 4.07562,-4.39223 8.3372,-8.6114 12.77232,-12.63949 z m -25.57663,27.67688 c -3.75263,4.84511 -7.296743,9.85128 -10.622047,14.99786 l 4.019781,2.59662 c 3.251916,-5.03299 6.715478,-9.92787 10.384092,-14.66451 z m -20.378135,31.7019 c -2.850577,5.4251 -5.468125,10.97332 -7.842756,16.62278 l 4.410888,1.85411 c 2.321599,-5.52329 4.881079,-10.94671 7.667823,-16.25032 z m 382.933695,3.6451 -4.27644,2.14374 c 2.6836,5.35628 5.13488,10.82802 7.34677,16.39562 l 4.44597,-1.7657 c -2.26276,-5.69566 -4.77103,-11.29431 -7.5163,-16.77366 z M 50.952211,190.87848 c -1.855102,5.84114 -3.458237,11.76132 -4.801221,17.74142 l 4.668958,1.04859 c 1.312619,-5.84488 2.879241,-11.63329 4.692624,-17.34307 z m 411.297189,3.9228 -4.58844,1.35685 c 1.70099,5.74378 3.15275,11.56289 4.35139,17.43285 l 4.68756,-0.95782 c -1.22609,-6.00443 -2.71011,-11.95504 -4.45051,-17.83188 z M 42.765857,227.66782 c -0.799243,6.07569 -1.339053,12.18501 -1.614982,18.30709 l 4.780201,0.21607 c 0.269756,-5.98513 0.79635,-11.9596 1.577777,-17.89985 z m 426.950003,4.07342 -4.75377,0.53525 c 0.62911,5.58317 1.03136,11.19278 1.21571,16.81124 l 4.78112,-0.15631 c -0.18841,-5.74202 -0.59942,-11.47806 -1.24306,-17.19018 z m -423.802433,33.36885 -4.779534,0.20492 c 0.263049,6.12206 0.787011,12.23244 1.567818,18.3097 l 4.745715,-0.60982 c -0.763618,-5.94347 -1.27678,-11.91846 -1.533998,-17.90478 z m 420.287613,-2.77772 c -0.17476,5.98941 -0.60446,11.97271 -1.29071,17.92416 l 4.75177,0.54817 c 0.70203,-6.08829 1.14166,-12.20812 1.32037,-18.33301 z m -415.502428,39.31699 -4.670166,1.03209 c 1.322666,5.98469 2.904105,11.91142 4.738138,17.75886 l 4.565442,-1.43095 c -1.792994,-5.7166 -3.340675,-11.51071 -4.633414,-17.36 z m 411.203508,-2.72023 c -1.21778,5.86568 -2.68874,11.68006 -4.40952,17.41801 l 4.58228,1.37325 c 1.7606,-5.87073 3.26663,-11.8173 4.51244,-17.81804 z m -400.098921,37.85166 -4.417424,1.83775 c 2.354668,5.6585 4.955325,11.2148 7.789133,16.64873 l 4.242409,-2.21186 c -2.770267,-5.31208 -5.312555,-10.74373 -7.614118,-16.27462 z m 389.445521,-2.57958 c -2.23012,5.56026 -4.7006,11.0253 -7.40188,16.37261 l 4.27108,2.15618 c 2.76336,-5.47021 5.28965,-11.06042 7.57108,-16.74861 z m -372.339633,35.21525 -4.026334,2.58276 c 3.309574,5.15824 6.84186,10.17366 10.580222,15.02879 l 3.788932,-2.91927 c -3.655554,-4.74758 -7.107668,-9.65003 -10.34282,-14.69228 z m 355.662833,-2.35828 c -3.16854,5.08493 -6.55641,10.03385 -10.14857,14.82895 l 3.83034,2.86851 c 3.67412,-4.90451 7.13799,-9.96664 10.37887,-15.16766 z m -333.1194,31.50811 -3.516319,3.24528 c 4.156889,4.50234 8.506309,8.82759 13.031059,12.95971 l 3.22624,-3.5333 c -4.42454,-4.04061 -8.67647,-8.26941 -12.74098,-12.67169 z m 310.96874,-2.05718 c -4.00363,4.45723 -8.1996,8.7425 -12.56922,12.8424 l 3.27247,3.48925 c 4.46855,-4.19274 8.76022,-8.57525 12.8553,-13.13429 z m -283.70485,26.84834 -2.89734,3.80696 c 4.87514,3.71187 9.90836,7.21689 15.08366,10.49949 l 2.5623,-4.03924 c -5.05913,-3.20892 -9.98114,-6.6373 -14.74862,-10.26721 z m 256.77726,-1.69068 c -4.71675,3.69403 -9.59395,7.18565 -14.60974,10.46362 l 2.61759,4.00461 c 5.12936,-3.35219 10.11579,-6.92213 14.94066,-10.70084 z m -225.61849,21.36621 -2.19232,4.25355 c 5.44766,2.80686 11.01777,5.37853 16.68754,7.70592 l 1.81624,-4.42462 c -5.54189,-2.27489 -10.98563,-4.79075 -16.31146,-7.53485 z m 194.72493,-1.2805 c -5.28939,2.81318 -10.70026,5.3994 -16.21228,7.74679 l 1.87464,4.40125 c 5.6385,-2.40126 11.17356,-5.0458 16.58446,-7.92361 z m -160.61083,15.20312 -1.411,4.57228 c 5.85637,1.80733 11.78988,3.3601 17.7797,4.6559 l 1.01284,-4.67528 c -5.85575,-1.26679 -11.65721,-2.78633 -17.38154,-4.5529 z m 126.68048,-0.84096 c -5.70074,1.84055 -11.48289,3.43384 -17.32172,4.77437 l 1.07111,4.6614 c 5.97329,-1.37139 11.88794,-2.99973 17.72044,-4.88282 z m -90.65141,8.55072 -0.58569,4.74924 c 6.08289,0.75196 12.19637,1.23795 18.31909,1.46678 l 0.17863,-4.78084 c -5.9883,-0.22381 -11.96688,-0.70026 -17.91203,-1.43518 z m 54.72258,-0.3745 c -5.93544,0.8134 -11.90746,1.37088 -17.89259,1.67767 l 0.24592,4.77633 c 6.11842,-0.31362 12.22361,-0.88306 18.29552,-1.71517 z"
       id="circle2687"
       sodipodi:nodetypes="cccccccccccccccccccccccccccccccccccccccccccccccccccccccccccccccccccccccccccccccscccccccccccccccccccccccccccccccccccccccccccccccccccccccccccccccccccccccccccccccccccccc"
       inkscape:label="trace" /></g><g
     aria-label="Lua"
     transform="matrix(0.96283182,0,0,0.95216525,10.886646,10.882122)"
     id="text4585"
     style="font-size:155.64px;line-height:1.25;font-family:FreeSans;-inkscape-font-specification:'FreeSans, Normal';fill:#ffffff;stroke-width:14.5912"
     inkscape:label="Lua"><path
       d="m 152.01313,231.1801 v 100.69908 h 56.0304 v 12.76248 H 137.53861 V 231.1801 Z"
       id="path4649"
       style="fill:#ffffff"
       inkscape:label="L" /><path
       d="m 286.95296,344.64166 h -11.673 v -11.36172 q -5.75868,8.09328 -11.98428,11.51736 -6.2256,3.42408 -15.25272,3.42408 -11.82864,0 -18.98808,-6.06996 -7.0038,-6.06996 -7.0038,-16.18656 V 263.0863 h 12.91812 v 57.74244 q 0,7.31508 4.51356,11.673 4.51356,4.35792 12.29556,4.35792 10.1166,0 16.18656,-7.47072 6.06996,-7.62636 6.06996,-20.07756 V 263.0863 h 12.91812 z"
       id="path4651"
       style="fill:#ffffff"
       inkscape:label="u" /><path
       d="m 304.5401,287.2105 c 0.62256,-17.6392 11.51736,-26.4588 32.6844,-26.4588 10.06472,0 17.69108,1.91956 22.87908,5.75868 5.188,3.73536 7.782,9.23464 7.782,16.49784 v 47.93712 c 0,4.25416 2.3346,6.38124 7.0038,6.38124 0.93384,0 1.86768,-0.10376 2.80152,-0.31128 v 9.80532 c -3.6316,0.93384 -6.58876,1.40076 -8.87148,1.40076 -4.1504,0 -7.31508,-0.98572 -9.49404,-2.95716 -2.0752,-1.86768 -3.3722,-4.87672 -3.891,-9.02712 -8.71584,7.98952 -17.95048,11.98428 -27.70392,11.98428 -8.19704,0 -14.73392,-2.17896 -19.61064,-6.53688 -4.77296,-4.35792 -7.15944,-9.71028 -7.15944,-17.07724 0,-2.38648 0.31272,-5.30207 0.72776,-7.27351 0.7777,-2.93493 3.271,-7.90483 6.83647,-11.0647 3.73811,-2.81273 7.28235,-4.23338 11.73513,-5.36223 1.24512,-0.41504 3.42408,-0.88196 6.53688,-1.40076 3.1128,-0.5188 5.39552,-0.88196 6.84816,-1.08948 1.45264,-0.20752 4.04664,-0.57068 7.782,-1.08948 5.08424,-0.62256 8.61208,-1.60828 10.58352,-2.95716 1.97144,-1.34888 2.95716,-3.3722 2.95716,-6.06996 v -3.42408 c 0,-3.94288 -1.60828,-6.95192 -4.82484,-9.02712 -3.1128,-2.0752 -7.57448,-3.1128 -13.38504,-3.1128 -6.01808,0 -10.58352,1.19324 -13.69632,3.57972 -3.1128,2.28272 -4.9286,5.91432 -5.4474,10.8948 z m 25.99188,49.64916 c 7.15944,0 13.02188,-1.86768 17.58732,-5.60304 4.56544,-3.83912 6.84816,-7.93764 6.84816,-12.29556 V 304.3309 c -2.594,1.24512 -6.53688,2.28272 -11.82864,3.1128 -5.188,0.83008 -9.70156,1.5564 -13.54068,2.17896 -3.83912,0.62256 -7.31508,2.12708 -10.42788,4.51356 -3.1128,2.28272 -4.6692,5.49928 -4.6692,9.64968 0,4.1504 1.40076,7.36696 4.20228,9.64968 2.80152,2.28272 6.7444,3.42408 11.82864,3.42408 z"
       id="path4653"
       style="fill:#ffffff"
       sodipodi:nodetypes="cscsssccsccscscccsscssscscccscsccscsss"
       inkscape:label="a" /></g></svg>
